<?xml version="1.0" encoding="UTF-8" standalone="no"?>
<!DOCTYPE svg PUBLIC "-//W3C//DTD SVG 1.1//EN"
 "http://www.w3.org/Graphics/SVG/1.1/DTD/svg11.dtd">
<!-- Generated by graphviz version 2.50.0 (0)
 -->
<!-- Pages: 1 -->
<svg width="349pt" height="138pt"
 viewBox="0.00 0.00 348.72 137.95" xmlns="http://www.w3.org/2000/svg" xmlns:xlink="http://www.w3.org/1999/xlink">
<g id="graph0" class="graph" transform="scale(1 1) rotate(0) translate(4 133.95)">
<polygon fill="white" stroke="transparent" points="-4,4 -4,-133.95 344.72,-133.95 344.72,4 -4,4"/>
<g id="clust1" class="cluster">
<title>cluster111358</title>
<path fill="none" stroke="black" d="M104.72,-8C104.72,-8 320.72,-8 320.72,-8 326.72,-8 332.72,-14 332.72,-20 332.72,-20 332.72,-109.95 332.72,-109.95 332.72,-115.95 326.72,-121.95 320.72,-121.95 320.72,-121.95 104.72,-121.95 104.72,-121.95 98.72,-121.95 92.72,-115.95 92.72,-109.95 92.72,-109.95 92.72,-20 92.72,-20 92.72,-14 98.72,-8 104.72,-8"/>
<text text-anchor="middle" x="304.22" y="-15.8" font-family="Times,serif" font-size="14.00">111358</text>
</g>
<!-- prior -->
<g id="node1" class="node">
<title>prior</title>
<ellipse fill="none" stroke="black" cx="41.72" cy="-76.48" rx="41.94" ry="37.45"/>
<text text-anchor="middle" x="41.72" y="-87.78" font-family="Times,serif" font-size="14.00">prior</text>
<text text-anchor="middle" x="41.72" y="-72.78" font-family="Times,serif" font-size="14.00">~</text>
<text text-anchor="middle" x="41.72" y="-57.78" font-family="Times,serif" font-size="14.00">Normal</text>
</g>
<!-- t_grn, Spurious peptide id -->
<g id="node2" class="node">
<title>t_grn, Spurious peptide id</title>
<ellipse fill="none" stroke="black" cx="212.72" cy="-76.48" rx="111.95" ry="37.45"/>
<text text-anchor="middle" x="212.72" y="-87.78" font-family="Times,serif" font-size="14.00">t_grn, Spurious peptide id</text>
<text text-anchor="middle" x="212.72" y="-72.78" font-family="Times,serif" font-size="14.00">~</text>
<text text-anchor="middle" x="212.72" y="-57.78" font-family="Times,serif" font-size="14.00">Bernoulli</text>
</g>
</g>
</svg>
